<svg xmlns="http://www.w3.org/2000/svg" xmlns:xlink="http://www.w3.org/1999/xlink" xmlns:svgjs="http://svgjs.dev/svgjs" width="1000" height="166" viewBox="0 0 1000 166"><g transform="matrix(1,0,0,1,-0.6060606060606233,0.5676255432806556)"><svg xmlns="http://www.w3.org/2000/svg" xmlns:xlink="http://www.w3.org/1999/xlink" viewBox="0 0 396 66" data-background-color="#fefee2" preserveAspectRatio="xMidYMid meet" height="166" width="1000"><defs></defs><g id="tight-bounds" transform="matrix(1,0,0,1,0.2400000000000091,-0.22568244491881728)"><svg viewBox="0 0 395.52 66.45136488983763" height="66.45136488983763" width="395.52"><g><svg viewBox="0 0 548.8197414615734 92.20727371209892" height="66.45136488983763" width="395.52"><g><rect width="3.8219894750359034" height="92.20727371209892" x="139.47254393670528" y="0" fill="#7fc37e" opacity="1" stroke-width="0" stroke="transparent" fill-opacity="1" class="rect-o-0" data-fill-palette-color="primary" rx="1%" id="o-0" data-palette-color="#7fc37e"></rect></g><g transform="matrix(1,0,0,1,153.2997414615734,0.22937132764203483)"><svg viewBox="0 0 395.52 91.74853105681485" height="91.74853105681485" width="395.52"><g><svg viewBox="0 0 395.52 91.74853105681485" height="91.74853105681485" width="395.52"><g><svg viewBox="0 0 395.52 91.74853105681485" height="91.74853105681485" width="395.52"><g transform="matrix(1,0,0,1,0,0)"><svg width="395.52" viewBox="1.8799996376037598 -35.70000076293945 339.69000244140625 75.80000305175781" height="91.74853105681485" data-palette-color="#7fc37e"><svg></svg><svg></svg><g class="undefined-text-0" data-fill-palette-color="primary" id="text-0"><path d="M14 0.7v0c-1.433 0-2.887-0.12-4.36-0.36-1.473-0.247-2.837-0.553-4.09-0.92-1.247-0.367-2.27-0.733-3.07-1.1v0l0.7-5.8c1.013 0.5 2.157 0.983 3.43 1.45 1.28 0.467 2.627 0.86 4.04 1.18 1.42 0.313 2.853 0.47 4.3 0.47v0c2.02 0 3.63-0.377 4.83-1.13 1.2-0.76 1.8-1.94 1.8-3.54v0c0-1.2-0.317-2.18-0.95-2.94-0.633-0.76-1.59-1.417-2.87-1.97-1.273-0.56-2.893-1.15-4.86-1.77v0c-1.88-0.6-3.6-1.297-5.16-2.09-1.56-0.807-2.807-1.853-3.74-3.14-0.933-1.293-1.4-2.983-1.4-5.07v0c0-1.88 0.48-3.55 1.44-5.01 0.96-1.46 2.373-2.6 4.24-3.42 1.867-0.827 4.173-1.24 6.92-1.24v0c2.233 0 4.313 0.247 6.24 0.74 1.927 0.487 3.54 1.013 4.84 1.58v0l-0.55 5.7c-1.933-1.033-3.763-1.783-5.49-2.25-1.727-0.467-3.497-0.7-5.31-0.7v0c-1.967 0-3.557 0.35-4.77 1.05-1.207 0.7-1.81 1.81-1.81 3.33v0c0 1.1 0.29 1.987 0.87 2.66 0.587 0.673 1.447 1.253 2.58 1.74 1.133 0.48 2.517 0.98 4.15 1.5v0c2.487 0.747 4.597 1.597 6.33 2.55 1.733 0.947 3.053 2.103 3.96 3.47 0.907 1.367 1.36 3.06 1.36 5.08v0c0 1.3-0.23 2.54-0.69 3.72-0.453 1.187-1.207 2.25-2.26 3.19-1.047 0.94-2.443 1.683-4.19 2.23-1.74 0.54-3.893 0.81-6.46 0.81zM58.55 0h-6.6l-12.95-18.53 12.95-16.47h6.5l-13.2 16.43zM38.5 0h-5.45v-35h5.45zM68.25 0h-5.6v-35h11.98c2.433 0 4.553 0.38 6.36 1.14 1.807 0.753 3.21 1.913 4.21 3.48 1 1.567 1.5 3.567 1.5 6v0c0 2.467-0.53 4.49-1.59 6.07-1.053 1.573-2.53 2.817-4.43 3.73v0l7.87 14.58h-6.37l-6.96-13.38c-0.047 0-0.087 0-0.12 0-0.033 0-0.077 0-0.13 0v0h-6.72zM68.25-30.28v12.18h5.63c2.48 0 4.29-0.56 5.43-1.68 1.147-1.113 1.72-2.597 1.72-4.45v0c0-1.913-0.567-3.4-1.7-4.46-1.133-1.06-2.92-1.59-5.36-1.59v0z" data-fill-palette-color="primary" fill="#7fc37e" opacity="1"></path><path d="M19.65 40.1v0c-3.467 0-6.537-0.75-9.21-2.25-2.673-1.5-4.77-3.613-6.29-6.34-1.513-2.727-2.27-5.93-2.27-9.61v0c0-3.687 0.77-6.89 2.31-9.61 1.54-2.727 3.67-4.84 6.39-6.34 2.713-1.5 5.803-2.25 9.27-2.25v0c1.8 0 3.493 0.19 5.08 0.57 1.58 0.387 2.963 0.88 4.15 1.48v0l-0.6 5.12c-1.253-0.6-2.597-1.1-4.03-1.5-1.433-0.4-2.983-0.6-4.65-0.6v0c-2.633 0-4.833 0.58-6.6 1.74-1.767 1.16-3.103 2.727-4.01 4.7-0.907 1.973-1.36 4.203-1.36 6.69v0c0 2.48 0.443 4.71 1.33 6.69 0.893 1.973 2.22 3.54 3.98 4.7 1.76 1.153 3.94 1.73 6.54 1.73v0c1.713 0 3.273-0.187 4.68-0.56 1.413-0.373 2.787-0.877 4.12-1.51v0l0.6 5.12c-1.287 0.587-2.717 1.073-4.29 1.46-1.573 0.38-3.287 0.57-5.14 0.57zM49.2 40.1v0c-3.333 0-6.3-0.75-8.9-2.25-2.6-1.5-4.643-3.613-6.13-6.34-1.48-2.727-2.22-5.93-2.22-9.61v0c0-3.687 0.74-6.89 2.22-9.61 1.487-2.727 3.53-4.84 6.13-6.34 2.6-1.5 5.567-2.25 8.9-2.25v0c3.333 0 6.3 0.75 8.9 2.25 2.6 1.5 4.643 3.613 6.13 6.34 1.48 2.72 2.22 5.923 2.22 9.61v0c0 3.68-0.74 6.883-2.22 9.61-1.487 2.727-3.53 4.84-6.13 6.34-2.6 1.5-5.567 2.25-8.9 2.25zM49.2 34.82v0c2.533 0 4.65-0.567 6.35-1.7 1.7-1.133 2.98-2.677 3.84-4.63 0.853-1.96 1.28-4.157 1.28-6.59v0c0-2.433-0.427-4.63-1.28-6.59-0.86-1.96-2.14-3.507-3.84-4.64-1.7-1.133-3.817-1.7-6.35-1.7v0c-2.533 0-4.65 0.567-6.35 1.7-1.7 1.133-2.98 2.68-3.84 4.64-0.853 1.96-1.28 4.157-1.28 6.59v0c0 2.433 0.427 4.63 1.28 6.59 0.86 1.953 2.14 3.497 3.84 4.63 1.7 1.133 3.817 1.7 6.35 1.7zM77.73 39.4h-5.45v-35h5.65l16.27 24.67v-24.67h5.48v35h-4.55l-17.4-26.1zM117.63 40.1v0c-1.44 0-2.897-0.12-4.37-0.36-1.473-0.247-2.837-0.553-4.09-0.92-1.247-0.367-2.27-0.733-3.07-1.1v0l0.7-5.8c1.02 0.5 2.167 0.983 3.44 1.45 1.273 0.467 2.62 0.86 4.04 1.18 1.413 0.313 2.847 0.47 4.3 0.47v0c2.013 0 3.62-0.377 4.82-1.13 1.2-0.76 1.8-1.94 1.8-3.54v0c0-1.2-0.317-2.18-0.95-2.94-0.633-0.76-1.587-1.417-2.86-1.97-1.28-0.56-2.9-1.15-4.86-1.77v0c-1.887-0.6-3.61-1.297-5.17-2.09-1.553-0.807-2.797-1.853-3.73-3.14-0.94-1.293-1.41-2.983-1.41-5.07v0c0-1.88 0.48-3.55 1.44-5.01 0.96-1.46 2.373-2.6 4.24-3.42 1.867-0.827 4.177-1.24 6.93-1.24v0c2.227 0 4.303 0.247 6.23 0.74 1.927 0.487 3.54 1.013 4.84 1.58v0l-0.55 5.7c-1.933-1.033-3.763-1.783-5.49-2.25-1.72-0.467-3.49-0.7-5.31-0.7v0c-1.967 0-3.553 0.35-4.76 1.05-1.213 0.7-1.82 1.81-1.82 3.33v0c0 1.1 0.293 1.987 0.88 2.66 0.58 0.673 1.437 1.253 2.57 1.74 1.14 0.48 2.527 0.98 4.16 1.5v0c2.48 0.747 4.587 1.597 6.32 2.55 1.733 0.947 3.053 2.103 3.96 3.47 0.907 1.367 1.36 3.06 1.36 5.08v0c0 1.3-0.227 2.54-0.68 3.72-0.46 1.187-1.213 2.25-2.26 3.19-1.053 0.94-2.45 1.683-4.19 2.23-1.747 0.54-3.9 0.81-6.46 0.81zM150.78 40.1v0c-3.287 0-6-0.637-8.14-1.91-2.14-1.28-3.737-3.087-4.79-5.42-1.047-2.333-1.57-5.1-1.57-8.3v0-20.07h5.44v18.65c0 1.613 0.123 3.147 0.37 4.6 0.24 1.447 0.677 2.72 1.31 3.82 0.633 1.1 1.547 1.967 2.74 2.6 1.193 0.633 2.74 0.95 4.64 0.95v0c1.913 0 3.467-0.317 4.66-0.95 1.187-0.633 2.1-1.503 2.74-2.61 0.633-1.107 1.063-2.38 1.29-3.82 0.233-1.447 0.35-2.977 0.35-4.59v0-18.65h5.46v20.07c0 3.2-0.527 5.967-1.58 8.3-1.047 2.333-2.643 4.14-4.79 5.42-2.14 1.273-4.85 1.91-8.13 1.91zM193.55 39.4h-20.8v-35h5.45v30.1h15.35zM206.9 39.4h-5.45v-29.9h-10.07v-5.1h25.59v5.1h-10.07zM237.97 25.57v4.88h-14.85v-4.88zM240.27 39.4l-10.47-29.68h1.5l-10.48 29.68h-5.5l12.5-35h5.45l12.5 35zM255.42 39.4h-5.45v-35h5.65l16.28 24.67v-24.67h5.48v35h-4.56l-17.4-26.1zM300.97 40.1v0c-3.467 0-6.537-0.75-9.21-2.25-2.673-1.5-4.77-3.613-6.29-6.34-1.513-2.727-2.27-5.93-2.27-9.61v0c0-3.687 0.77-6.89 2.31-9.61 1.54-2.727 3.67-4.84 6.39-6.34 2.713-1.5 5.807-2.25 9.28-2.25v0c1.8 0 3.49 0.19 5.07 0.57 1.587 0.387 2.97 0.88 4.15 1.48v0l-0.6 5.12c-1.247-0.6-2.59-1.1-4.03-1.5-1.427-0.4-2.973-0.6-4.64-0.6v0c-2.633 0-4.837 0.58-6.61 1.74-1.76 1.16-3.097 2.727-4.01 4.7-0.907 1.973-1.36 4.203-1.36 6.69v0c0 2.48 0.447 4.71 1.34 6.69 0.887 1.973 2.21 3.54 3.97 4.7 1.76 1.153 3.94 1.73 6.54 1.73v0c1.713 0 3.277-0.187 4.69-0.56 1.407-0.373 2.777-0.877 4.11-1.51v0l0.6 5.12c-1.287 0.587-2.717 1.073-4.29 1.46-1.573 0.38-3.287 0.57-5.14 0.57zM329.27 39.4h-5.45v-14.73l-12.32-20.27h6.07l10.23 17.32h-2.55l10.25-17.32h6.07l-12.3 20.27z" data-fill-palette-color="primary" fill="#7fc37e" opacity="1"></path></g></svg></g></svg></g></svg></g></svg></g><g transform="matrix(1,0,0,1,0,0.22937132764203483)"><svg viewBox="0 0 129.46733588687306 91.74853105681485" height="91.74853105681485" width="129.46733588687306"><g><svg xmlns="http://www.w3.org/2000/svg" xmlns:xlink="http://www.w3.org/1999/xlink" x="0" y="0" viewBox="5.999995231628418 18.4913330078125 88.5 62.716552734375" xml:space="preserve" height="91.74853105681485" width="129.46733588687306" class="icon-icon-0" data-fill-palette-color="accent" id="icon-0"><g fill="#7fc37e" data-fill-palette-color="accent"><path fill-rule="evenodd" clip-rule="evenodd" d="M21.898 55.546l-5.376-1.683c-0.632-0.194-1.3 0.16-1.495 0.794-0.197 0.637 0.156 1.313 0.786 1.51l5.376 1.684c0.118 0.037 0.238 0.054 0.355 0.053 0.511 0 0.982-0.332 1.141-0.848C22.882 56.42 22.529 55.743 21.898 55.546z" fill="#7fc37e" data-fill-palette-color="accent"></path><path fill-rule="evenodd" clip-rule="evenodd" d="M11.148 52.181l-3.598-1.127c-0.632-0.196-1.3 0.16-1.495 0.795-0.197 0.637 0.156 1.313 0.786 1.51l3.598 1.127c0.118 0.037 0.238 0.054 0.354 0.054 0.511 0 0.982-0.332 1.143-0.849C12.131 53.055 11.778 52.378 11.148 52.181z" fill="#7fc37e" data-fill-palette-color="accent"></path><path fill-rule="evenodd" clip-rule="evenodd" d="M93.615 58.853l-3.635-0.992c-0.632-0.176-1.293 0.206-1.466 0.849-0.173 0.643 0.205 1.306 0.842 1.48l3.636 0.992c0.104 0.028 0.208 0.043 0.312 0.043 0.526 0 1.009-0.355 1.154-0.892C94.631 59.691 94.253 59.028 93.615 58.853z" fill="#7fc37e" data-fill-palette-color="accent"></path><path fill-rule="evenodd" clip-rule="evenodd" d="M84.547 56.38l-5.433-1.483c-0.629-0.174-1.293 0.206-1.466 0.848-0.173 0.644 0.205 1.306 0.842 1.481l5.433 1.481c0.106 0.03 0.21 0.043 0.313 0.043 0.526 0 1.009-0.355 1.153-0.891C85.562 57.214 85.185 56.553 84.547 56.38z" fill="#7fc37e" data-fill-palette-color="accent"></path><path fill-rule="evenodd" clip-rule="evenodd" d="M75.992 35.872c-0.013-0.038-0.022-0.075-0.038-0.111-0.056-0.123-0.127-0.239-0.224-0.34l-0.006-0.006c-0.002-0.002-0.004-0.004-0.007-0.007L59.664 18.854c-0.002-0.002-0.004-0.003-0.006-0.004-0.009-0.01-0.022-0.015-0.031-0.024-0.094-0.089-0.199-0.159-0.312-0.213-0.037-0.018-0.076-0.029-0.115-0.042-0.103-0.036-0.207-0.057-0.316-0.064-0.026-0.002-0.048-0.015-0.075-0.016H29.917c-2.987 0-5.417 2.451-5.417 5.464v51.789c0 3.013 2.43 5.464 5.417 5.464h40.737c2.987 0 5.417-2.451 5.417-5.464V36.265c0-0.026-0.013-0.048-0.015-0.074C76.049 36.081 76.028 35.976 75.992 35.872zM60.004 22.656l12.028 12.402h-9.706c-1.28 0-2.321-1.05-2.322-2.342V22.656zM29.917 20.904h27.697v11.812c0 2.621 2.113 4.754 4.712 4.755h11.353v15.685l-14.409-3.959c0.014-1.234-0.422-2.475-1.329-3.439-1.776-1.886-5.013-1.971-6.88-0.177-0.944 0.903-1.482 2.123-1.514 3.433-0.022 0.844 0.188 1.651 0.564 2.379l-7.703 6.739c-1.815-1.023-4.263-0.838-5.803 0.636-0.373 0.357-0.655 0.77-0.89 1.202l-8.823-2.709V23.955C26.892 22.273 28.248 20.904 29.917 20.904zM70.654 78.795H29.917c-1.669 0-3.025-1.369-3.025-3.051V59.782l8.211 2.521c-0.006 1.223 0.429 2.451 1.328 3.406 0.914 0.971 2.202 1.527 3.528 1.527 1.254 0 2.443-0.48 3.352-1.35 1.679-1.607 1.96-4.142 0.821-6.07l7.559-6.614c0.799 0.542 1.747 0.847 2.721 0.847 1.254 0 2.443-0.48 3.352-1.35 0.365-0.35 0.643-0.753 0.876-1.175l15.039 4.132v20.088C73.679 77.426 72.323 78.795 70.654 78.795z" fill="#7fc37e" data-fill-palette-color="accent"></path></g></svg></g></svg></g></svg></g></svg><rect width="395.52" height="66.45136488983763" fill="none" stroke="none"></rect></g></svg></g></svg>